<?xml version="1.0" standalone="no"?>
<svg viewBox="0 0 200 200" xmlns="http://www.w3.org/2000/svg">
  <path fill="#FF0066" d="M43.6,-60.7C53.9,-61.2,57.8,-44.7,64,-29.7C70.1,-14.6,78.5,-1.1,76.5,10.8C74.5,22.7,62,32.8,48.5,34C35,35.2,20.4,27.3,10.5,25.7C0.6,24.1,-4.6,28.7,-16.5,34.9C-28.4,41.2,-47.1,49.1,-52.5,44.6C-57.8,40,-49.8,23,-43.2,11.5C-36.7,0,-31.6,-6.1,-30,-15.4C-28.4,-24.8,-30.3,-37.5,-25.9,-39.7C-21.5,-41.9,-10.8,-33.5,3,-38.1C16.7,-42.7,33.3,-60.2,43.6,-60.7Z" transform="translate(100 100)" />
</svg>
