<svg xmlns="http://www.w3.org/2000/svg" xmlns:xlink="http://www.w3.org/1999/xlink" width="967.071" height="858.881" viewBox="0 0 967.071 858.881">
  <defs>
    <linearGradient id="linear-gradient" x1="0.5" x2="0.5" y2="1" gradientUnits="objectBoundingBox">
      <stop offset="0" stop-color="#007d9e"/>
      <stop offset="1" stop-color="#53cafc"/>
    </linearGradient>
  </defs>
  <g id="Group_16" data-name="Group 16" transform="matrix(0.966, -0.259, 0.259, 0.966, -1125.128, -2460.137)">
    <path id="blob" d="M559.445-60.642c64.613-3.137,89.078,100.37,127.972,194.467,38.266,94.724,90.96,179.411,78.414,254.062S674.871,525.9,590.183,533.424,413.908,491.394,351.8,481.357,257.08,500.176,182.43,539.069C107.78,578.59-9.528,628.148-43.4,599.919c-33.248-28.856,16.937-135.5,58.34-207.64,40.775-72.141,72.768-110.407,82.805-168.747C107.78,164.564,95.861,84.9,123.463,71.094s94.724,38.893,181.293,10.037C390.7,52.275,494.832-57.5,559.445-60.642Z" transform="translate(449.225 2933.712)" fill="url(#linear-gradient)"/>
  </g>
</svg>
